<svg width="48" height="48" viewBox="0 0 48 48" fill="none" xmlns="http://www.w3.org/2000/svg">
<path d="M0 8C0 3.58172 3.58172 0 8 0H40C44.4183 0 48 3.58172 48 8V40C48 44.4183 44.4183 48 40 48H8C3.58172 48 0 44.4183 0 40V8Z" fill="white"/>
<mask id="mask0_837_103287" style="mask-type:alpha" maskUnits="userSpaceOnUse" x="16" y="14" width="15" height="20">
<path d="M29.4405 23.3333H26.241L26.8809 29.4839H30.7203V33.1398L25.6011 34H17.2799L16.0019 31.3333L16 25.0968L17.9223 14H28.7981L29.4405 23.3333Z" fill="white"/>
</mask>
<g mask="url(#mask0_837_103287)">
<path fill-rule="evenodd" clip-rule="evenodd" d="M23.9766 17.9288C24.0496 18.0278 24.1564 18.0789 24.2648 18.0789C24.3458 18.0789 24.4269 18.0502 24.4955 17.9919L26.5398 16.2202C26.912 15.8977 27.0506 15.3747 26.8928 14.8877C26.7351 14.4015 26.3254 14.0869 25.8493 14.0869H18.9961C18.52 14.0869 18.1102 14.4015 17.9525 14.8877C17.7948 15.3747 17.9334 15.8977 18.3055 16.2202L20.3499 17.9919C20.5091 18.1292 20.7413 18.1012 20.868 17.9296C20.9948 17.7571 20.969 17.5064 20.8105 17.3683L18.7662 15.5967C18.576 15.433 18.6276 15.215 18.6482 15.152C18.6681 15.0897 18.7536 14.8853 18.9961 14.8853H25.8485C26.091 14.8853 26.1765 15.0897 26.1964 15.1512C26.217 15.2142 26.2679 15.4322 26.0785 15.5959L24.0341 17.3675C23.8757 17.5056 23.8499 17.7563 23.9766 17.9288ZM20.2551 33.336H25.1897C27.8677 33.336 29.0668 30.8426 29.0668 28.372C29.0668 26.5931 28.702 24.8524 28.0378 23.3681C27.3782 21.894 26.4234 20.673 25.2375 19.9187C25.2032 19.897 25.0547 19.9358 24.9343 19.9673C24.8644 19.9856 24.8039 20.0015 24.7808 20.0015H20.664C20.6012 20.0015 19.8964 19.9186 19.8964 19.9186C17.5165 21.4323 16.3779 24.8263 16.3779 28.372C16.3779 30.8426 17.577 33.336 20.2551 33.336ZM17.0829 28.372C17.0829 25.121 18.6253 21.7692 20.7612 20.3534H24.6835C25.6738 21.0098 26.5365 22.0824 27.1771 23.3681C27.9181 24.8556 28.3619 26.6283 28.3619 28.372C28.3619 30.3095 27.5308 32.5723 25.1897 32.5723H20.2551C17.914 32.5723 17.0829 30.3095 17.0829 28.372Z" fill="#CC163F"/>
<path d="M23.9766 17.9288L23.896 17.988L23.8961 17.9881L23.9766 17.9288ZM24.4955 17.9919L24.5602 18.0681L24.5609 18.0674L24.4955 17.9919ZM26.5398 16.2202L26.6053 16.2958L26.6053 16.2958L26.5398 16.2202ZM26.8928 14.8877L26.988 14.8569L26.988 14.8569L26.8928 14.8877ZM17.9525 14.8877L17.8574 14.8569L17.8574 14.8569L17.9525 14.8877ZM18.3055 16.2202L18.2401 16.2958L18.2401 16.2958L18.3055 16.2202ZM20.3499 17.9919L20.2844 18.0674L20.2846 18.0676L20.3499 17.9919ZM20.868 17.9296L20.9485 17.989L20.9486 17.9888L20.868 17.9296ZM20.8105 17.3683L20.8763 17.2929L20.876 17.2927L20.8105 17.3683ZM18.7662 15.5967L18.8317 15.5211L18.8314 15.5209L18.7662 15.5967ZM18.6482 15.152L18.7433 15.1831L18.7435 15.1824L18.6482 15.152ZM26.1964 15.1512L26.1013 15.182L26.1014 15.1823L26.1964 15.1512ZM26.0785 15.5959L26.0131 15.5202L26.013 15.5203L26.0785 15.5959ZM24.0341 17.3675L23.9686 17.292L23.9684 17.2921L24.0341 17.3675ZM28.0378 23.3681L28.1291 23.3273L28.0378 23.3681ZM25.2375 19.9187L25.2912 19.8344L25.291 19.8342L25.2375 19.9187ZM24.9343 19.9673L24.909 19.8706L24.9343 19.9673ZM19.8964 19.9186L19.908 19.8193L19.8727 19.8152L19.8427 19.8343L19.8964 19.9186ZM20.7612 20.3534V20.2534H20.7311L20.706 20.27L20.7612 20.3534ZM24.6835 20.3534L24.7388 20.27L24.7136 20.2534H24.6835V20.3534ZM27.1771 23.3681L27.0876 23.4127L27.1771 23.3681ZM24.2648 17.9789C24.1887 17.9789 24.1115 17.9433 24.0571 17.8695L23.8961 17.9881C23.9876 18.1123 24.1242 18.1789 24.2648 18.1789V17.9789ZM24.4307 17.9157C24.3799 17.9589 24.3217 17.9789 24.2648 17.9789V18.1789C24.37 18.1789 24.474 18.1414 24.5602 18.068L24.4307 17.9157ZM26.4743 16.1447L24.43 17.9163L24.5609 18.0674L26.6053 16.2958L26.4743 16.1447ZM26.7977 14.9185C26.9437 15.3693 26.8146 15.8497 26.4743 16.1447L26.6053 16.2958C27.0094 15.9456 27.1574 15.3801 26.988 14.8569L26.7977 14.9185ZM25.8493 14.1869C26.2778 14.1869 26.652 14.4694 26.7977 14.9186L26.988 14.8569C26.8182 14.3336 26.3729 13.9869 25.8493 13.9869V14.1869ZM18.9961 14.1869H25.8493V13.9869H18.9961V14.1869ZM18.0477 14.9186C18.1933 14.4694 18.5676 14.1869 18.9961 14.1869V13.9869C18.4725 13.9869 18.0272 14.3336 17.8574 14.8569L18.0477 14.9186ZM18.371 16.1447C18.0307 15.8497 17.9017 15.3693 18.0477 14.9185L17.8574 14.8569C17.688 15.3801 17.836 15.9456 18.2401 16.2958L18.371 16.1447ZM20.4154 17.9163L18.371 16.1447L18.2401 16.2958L20.2844 18.0674L20.4154 17.9163ZM20.7876 17.8702C20.6944 17.9963 20.5292 18.0144 20.4153 17.9161L20.2846 18.0676C20.4891 18.244 20.7881 18.2062 20.9485 17.989L20.7876 17.8702ZM20.7448 17.4437C20.863 17.5467 20.8843 17.7387 20.7875 17.8704L20.9486 17.9888C21.1053 17.7756 21.075 17.4662 20.8763 17.2929L20.7448 17.4437ZM18.7007 15.6723L20.7451 17.4439L20.876 17.2927L18.8317 15.5211L18.7007 15.6723ZM18.5532 15.1209C18.5297 15.1929 18.4621 15.4669 18.7009 15.6725L18.8314 15.5209C18.69 15.3992 18.7256 15.2372 18.7433 15.1831L18.5532 15.1209ZM18.9961 14.7853C18.6823 14.7853 18.575 15.0526 18.553 15.1215L18.7435 15.1824C18.7613 15.1268 18.825 14.9853 18.9961 14.9853V14.7853ZM25.8485 14.7853H18.9961V14.9853H25.8485V14.7853ZM26.2915 15.1204C26.2696 15.0526 26.1623 14.7853 25.8485 14.7853V14.9853C26.0197 14.9853 26.0834 15.1268 26.1013 15.182L26.2915 15.1204ZM26.1439 15.6715C26.3817 15.4661 26.3151 15.1924 26.2914 15.1201L26.1014 15.1823C26.119 15.2361 26.1541 15.3984 26.0131 15.5202L26.1439 15.6715ZM24.0996 17.4431L26.144 15.6715L26.013 15.5203L23.9686 17.292L24.0996 17.4431ZM24.0572 17.8696C23.9604 17.7379 23.9816 17.5459 24.0998 17.4429L23.9684 17.2921C23.7697 17.4654 23.7393 17.7748 23.896 17.988L24.0572 17.8696ZM25.1897 33.236H20.2551V33.436H25.1897V33.236ZM28.9668 28.372C28.9668 29.5931 28.6702 30.8129 28.0498 31.7242C27.4321 32.6317 26.4924 33.236 25.1897 33.236V33.436C26.565 33.436 27.5639 32.7935 28.2152 31.8367C28.8639 30.8837 29.1668 29.6215 29.1668 28.372H28.9668ZM27.9465 23.409C28.6046 24.8795 28.9668 26.6063 28.9668 28.372H29.1668C29.1668 26.5799 28.7994 24.8252 28.1291 23.3273L27.9465 23.409ZM25.1838 20.0031C26.3493 20.7443 27.2928 21.948 27.9465 23.409L28.1291 23.3273C27.4636 21.8401 26.4975 20.6016 25.2912 19.8344L25.1838 20.0031ZM24.9596 20.0641C25.0207 20.0481 25.0846 20.0314 25.1372 20.0213C25.1637 20.0161 25.184 20.0133 25.1978 20.0126C25.2047 20.0122 25.2074 20.0126 25.207 20.0125C25.2067 20.0125 25.2045 20.0122 25.201 20.0111C25.1976 20.0101 25.1914 20.0079 25.184 20.0032L25.291 19.8342C25.2689 19.8202 25.2462 19.8159 25.2321 19.8141C25.2166 19.8121 25.2011 19.8122 25.1874 19.8129C25.1599 19.8143 25.1291 19.8191 25.0992 19.8249C25.0389 19.8366 24.9683 19.8551 24.909 19.8706L24.9596 20.0641ZM24.7808 20.1015C24.806 20.1015 24.8384 20.0943 24.8627 20.0887C24.891 20.082 24.9251 20.0731 24.9596 20.0641L24.909 19.8706C24.8736 19.8799 24.8424 19.888 24.8172 19.8939C24.8047 19.8968 24.7947 19.8989 24.7873 19.9002C24.7785 19.9018 24.7775 19.9015 24.7808 19.9015V20.1015ZM20.664 20.1015H24.7808V19.9015H20.664V20.1015ZM19.8964 19.9186C19.8847 20.018 19.8847 20.018 19.8847 20.018C19.8847 20.018 19.8847 20.018 19.8847 20.018C19.8847 20.018 19.8848 20.018 19.8848 20.018C19.8849 20.018 19.885 20.018 19.8852 20.018C19.8855 20.0181 19.8861 20.0181 19.8867 20.0182C19.8881 20.0184 19.8901 20.0186 19.8926 20.0189C19.8978 20.0195 19.9055 20.0204 19.9152 20.0215C19.9346 20.0238 19.9624 20.027 19.996 20.0309C20.0631 20.0387 20.1533 20.0491 20.2454 20.0594C20.3376 20.0698 20.4319 20.0802 20.5072 20.088C20.5787 20.0954 20.6416 20.1015 20.664 20.1015V19.9015C20.6644 19.9015 20.6636 19.9015 20.6612 19.9014C20.6589 19.9012 20.6559 19.9011 20.652 19.9008C20.6443 19.9002 20.6342 19.8994 20.6219 19.8983C20.5973 19.8961 20.5651 19.8929 20.5279 19.8891C20.4534 19.8813 20.3597 19.871 20.2678 19.8607C20.1759 19.8504 20.086 19.84 20.019 19.8323C19.9855 19.8284 19.9577 19.8251 19.9384 19.8229C19.9287 19.8218 19.9211 19.8209 19.9159 19.8203C19.9133 19.82 19.9114 19.8197 19.91 19.8196C19.9094 19.8195 19.9089 19.8194 19.9085 19.8194C19.9084 19.8194 19.9082 19.8194 19.9081 19.8193C19.9081 19.8193 19.9081 19.8193 19.9081 19.8193C19.908 19.8193 19.908 19.8193 19.908 19.8193C19.908 19.8193 19.908 19.8193 19.8964 19.9186ZM16.4779 28.372C16.4779 24.8388 17.6134 21.4891 19.95 20.003L19.8427 19.8343C17.4195 21.3754 16.2779 24.8137 16.2779 28.372H16.4779ZM20.2551 33.236C18.9523 33.236 18.0127 32.6317 17.3949 31.7242C16.7746 30.8129 16.4779 29.5931 16.4779 28.372H16.2779C16.2779 29.6215 16.5809 30.8837 17.2296 31.8367C17.8809 32.7935 18.8798 33.436 20.2551 33.436V33.236ZM20.706 20.27C19.6182 20.9911 18.6881 22.2 18.0302 23.6328C17.3719 25.0665 16.9829 26.7314 16.9829 28.372H17.1829C17.1829 26.7617 17.565 25.1252 18.2119 23.7163C18.8593 22.3065 19.7683 21.1315 20.8165 20.4367L20.706 20.27ZM24.6835 20.2534H20.7612V20.4534H24.6835V20.2534ZM27.2666 23.3235C26.6206 22.0269 25.7476 20.9387 24.7388 20.27L24.6283 20.4367C25.6 21.0809 26.4525 22.1379 27.0876 23.4127L27.2666 23.3235ZM28.4619 28.372C28.4619 26.6122 28.0143 24.8243 27.2666 23.3235L27.0876 23.4127C27.822 24.8869 28.2619 26.6444 28.2619 28.372H28.4619ZM25.1897 32.6723C26.3991 32.6723 27.2224 32.0848 27.7387 31.2514C28.2519 30.4228 28.4619 29.3526 28.4619 28.372H28.2619C28.2619 29.3289 28.0562 30.3589 27.5687 31.1461C27.0841 31.9284 26.3213 32.4723 25.1897 32.4723V32.6723ZM20.2551 32.6723H25.1897V32.4723H20.2551V32.6723ZM16.9829 28.372C16.9829 29.3526 17.1928 30.4228 17.7061 31.2514C18.2223 32.0848 19.0456 32.6723 20.2551 32.6723V32.4723C19.1235 32.4723 18.3606 31.9284 17.8761 31.1461C17.3885 30.3589 17.1829 29.3289 17.1829 28.372H16.9829Z" fill="#CC163F"/>
<path d="M20.0069 17.9311C19.4472 17.9311 18.9934 18.3849 18.9934 18.9447C18.9934 19.5045 19.4472 19.9583 20.0069 19.9583H25.1224C25.6822 19.9583 26.136 19.5045 26.136 18.9447C26.136 18.3849 25.6822 17.9311 25.1224 17.9311H20.0069Z" stroke="#CC163F" stroke-width="0.9"/>
</g>
<path d="M23.0003 28L24.8337 29.8333L26.667 28" stroke="#CC163F" stroke-width="0.8" stroke-linecap="round" stroke-linejoin="round"/>
<path d="M24.7217 29.0002C24.7217 28.0277 25.108 27.0951 25.7956 26.4074C26.4833 25.7198 27.4159 25.3335 28.3883 25.3335H32.055" stroke="#CC163F" stroke-width="0.8" stroke-linecap="round" stroke-linejoin="round"/>
</svg>
