<svg width="48" height="48" viewBox="0 0 48 48" fill="none" xmlns="http://www.w3.org/2000/svg">
<path d="M0 8C0 3.58172 3.58172 0 8 0H40C44.4183 0 48 3.58172 48 8V40C48 44.4183 44.4183 48 40 48H8C3.58172 48 0 44.4183 0 40V8Z" fill="white"/>
<path fill-rule="evenodd" clip-rule="evenodd" d="M21.372 15.5201C20.9653 15.4399 20.4353 15.5218 19.7573 15.9287C19.3443 16.1766 19.0567 16.7094 19.0363 17.3518C19.0162 17.9826 19.2601 18.6499 19.8197 19.1157C20.3917 19.5916 21.2647 19.8427 22.4795 19.9445H23.4867C23.4155 18.4585 23.0584 17.1195 22.4698 16.3053C22.1469 15.8586 21.7779 15.6001 21.372 15.5201ZM19.1801 19.8843C19.2046 19.9047 19.2294 19.9248 19.2546 19.9445H14.8333C14.097 19.9445 13.5 20.5415 13.5 21.2779V24.6112C13.5 25.3476 14.097 25.9445 14.8333 25.9445H15.1667V32.9445C15.1667 33.2981 15.3072 33.6373 15.5573 33.8873C15.8073 34.1374 16.1465 34.2779 16.5001 34.2779H24H31.5001C31.8537 34.2779 32.1928 34.1374 32.4429 33.8873C32.6929 33.6373 32.8334 33.2981 32.8334 32.9445V25.9445H33.1667C33.903 25.9445 34.5 25.3476 34.5 24.6112V21.2779C34.5 20.5415 33.903 19.9445 33.1667 19.9445H28.7552C28.777 19.9273 28.7986 19.9098 28.8199 19.892C29.6422 19.2077 29.9919 18.2313 29.9632 17.3277C29.9349 16.4358 29.5315 15.5436 28.7573 15.079C27.9353 14.5857 27.1529 14.405 26.4345 14.5467C25.7154 14.6885 25.1469 15.1362 24.7198 15.7271C24.4248 16.1353 24.1864 16.6254 24.0013 17.1676C23.8159 16.6224 23.5766 16.1295 23.2802 15.7194C22.8531 15.1285 22.2846 14.6808 21.5655 14.539C20.8471 14.3973 20.0647 14.578 19.2427 15.0713C18.4685 15.5359 18.0651 16.4281 18.0368 17.32C18.0081 18.2236 18.3578 19.2 19.1801 19.8843ZM25.6085 19.9445H24.5136C24.5858 18.4615 24.9426 17.1258 25.5302 16.313C25.8531 15.8663 26.2221 15.6078 26.628 15.5278C27.0347 15.4476 27.5647 15.5295 28.2427 15.9364C28.6557 16.1843 28.9433 16.7171 28.9637 17.3595C28.9838 17.9902 28.7399 18.6576 28.1803 19.1234C27.6222 19.5877 26.7776 19.8381 25.6085 19.9445ZM24.5 21.0031V24.9445H32.3334H33.1667C33.3508 24.9445 33.5 24.7953 33.5 24.6112V21.2779C33.5 21.0938 33.3508 20.9445 33.1667 20.9445H25.6616C25.2902 20.9773 24.9021 20.9954 24.5 21.0031ZM14.8333 20.9445H22.4292C22.773 20.9725 23.1306 20.9883 23.5 20.9954V24.9445H15.6667H14.8333C14.6492 24.9445 14.5 24.7953 14.5 24.6112V21.2779C14.5 21.0938 14.6492 20.9445 14.8333 20.9445ZM23.5 25.9445H16.1667V32.9445C16.1667 33.0329 16.2019 33.1177 16.2644 33.1802C16.3269 33.2427 16.4117 33.2779 16.5001 33.2779H23.5V25.9445ZM24.5 33.2779V25.9445H31.8334V32.9445C31.8334 33.0329 31.7983 33.1177 31.7358 33.1802C31.6733 33.2427 31.5885 33.2779 31.5001 33.2779H24.5Z" fill="#CC163F"/>
</svg>
