<svg width="48" height="48" viewBox="0 0 48 48" fill="none" xmlns="http://www.w3.org/2000/svg">
<path d="M0 8C0 3.58172 3.58172 0 8 0H40C44.4183 0 48 3.58172 48 8V40C48 44.4183 44.4183 48 40 48H8C3.58172 48 0 44.4183 0 40V8Z" fill="white"/>
<path fill-rule="evenodd" clip-rule="evenodd" d="M18.5 22C20.433 22 22 20.433 22 18.5C22 16.567 20.433 15 18.5 15C16.567 15 15 16.567 15 18.5C15 20.433 16.567 22 18.5 22ZM18.5 23C20.9853 23 23 20.9853 23 18.5C23 16.0147 20.9853 14 18.5 14C16.0147 14 14 16.0147 14 18.5C14 20.9853 16.0147 23 18.5 23ZM33.7286 14.2714C33.9238 14.4667 33.9238 14.7833 33.7285 14.9786L15.2373 33.4695C15.0421 33.6647 14.7255 33.6647 14.5302 33.4695C14.335 33.2742 14.335 32.9576 14.5302 32.7624L33.0215 14.2714C33.2167 14.0762 33.5333 14.0762 33.7286 14.2714ZM33 29.5C33 31.433 31.433 33 29.5 33C27.567 33 26 31.433 26 29.5C26 27.567 27.567 26 29.5 26C31.433 26 33 27.567 33 29.5ZM34 29.5C34 31.9853 31.9853 34 29.5 34C27.0147 34 25 31.9853 25 29.5C25 27.0147 27.0147 25 29.5 25C31.9853 25 34 27.0147 34 29.5Z" fill="#CC163F"/>
</svg>
