<svg width="40" height="41" viewBox="0 0 40 41" fill="none" xmlns="http://www.w3.org/2000/svg">
<path d="M34.0433 12.9275L23.6266 7.19832C23.4728 7.11371 23.3001 7.06934 23.1245 7.06934C22.949 7.06934 22.7762 7.11371 22.6224 7.19832L12.2058 12.9275C12.0424 13.0174 11.9062 13.1495 11.8114 13.31C11.7165 13.4705 11.6665 13.6536 11.6665 13.84C11.6665 14.0264 11.7165 14.2095 11.8114 14.37C11.9062 14.5305 12.0424 14.6626 12.2058 14.7525L22.0828 20.1848V31.3504L18.9203 29.6108L17.9162 31.4348L22.6224 34.0233C22.7762 34.1081 22.9489 34.1526 23.1245 34.1526C23.3001 34.1526 23.4728 34.1081 23.6266 34.0233L34.0433 28.2942C34.2066 28.2043 34.3429 28.0722 34.4378 27.9117C34.5327 27.7512 34.5828 27.5681 34.5828 27.3817V13.84C34.5828 13.6535 34.5327 13.4705 34.4378 13.31C34.3429 13.1495 34.2066 13.0174 34.0433 12.9275ZM23.1245 9.30041L31.3797 13.84L23.1245 18.3796L14.8693 13.84L23.1245 9.30041ZM32.4995 26.766L24.1662 31.3494V20.1837L32.4995 15.6004V26.766Z" fill="#CC163F"/>
<path d="M13.7497 20.6107H5.41634V18.5273H13.7497V20.6107Z" fill="#CC163F"/>
<path d="M15.8333 28.9447H7.5V26.8613H15.8333V28.9447Z" fill="#CC163F"/>
<path d="M17.9165 24.7777H9.58317V22.6943H17.9165V24.7777Z" fill="#CC163F"/>
</svg>
