<svg width="24" height="25" viewBox="0 0 24 25" fill="none" xmlns="http://www.w3.org/2000/svg">
<path d="M6.75234 0.610718C1.80842 0.610718 0 2.41899 0 7.36306V17.8584C0 22.8024 1.80842 24.6107 6.75234 24.6107H17.2444C22.1885 24.6107 24.0001 22.8024 24.0001 17.8584V7.36306C24.0001 2.41899 22.1917 0.610718 17.2478 0.610718H6.75234Z" fill="#262626"/>
<path d="M4.754 12.6127H5.38988V15.7506H4.754V14.4763H3.31646V15.7506H2.67969V12.6127H3.31646V13.8785H4.754V12.6127ZM8.34038 14.4088C8.34038 14.9189 8.08706 15.1914 7.627 15.1914C7.16458 15.1914 6.90979 14.9105 6.90979 14.387V12.6145H6.27317V14.4088C6.27317 15.2914 6.76353 15.7974 7.61887 15.7974C8.48205 15.7974 8.97715 15.2818 8.97715 14.3827V12.6125H8.34126L8.34038 14.4088ZM15.6981 14.7704L14.9858 12.6125H14.4662L13.7538 14.7704L13.0606 12.614H12.383L13.4773 15.7504H14.0031L14.7167 13.6903L15.4299 15.7504H15.9622L17.0532 12.614H16.3932L15.6981 14.7704ZM18.1943 14.4007H19.3522V13.8293H18.1943V13.1871H19.8753V12.6151H17.5663V15.7489H19.9359V15.1774H18.1943V14.4007ZM20.6948 15.7464H21.3232V12.6127H20.695L20.6948 15.7464ZM10.235 15.0957L9.94946 15.7491H9.29953L10.6818 12.613H11.2437L12.6205 15.7491H11.9529L11.672 15.0957H10.235ZM10.4716 14.53H11.4342L10.9513 13.4071L10.4716 14.53Z" fill="white"/>
<path d="M11.9997 8.61741C10.9406 8.6162 9.92514 8.1949 9.17623 7.44596C8.42731 6.69702 8.00606 5.68158 8.00488 4.62244H8.56919C8.56919 5.53234 8.93065 6.40498 9.57405 7.04839C10.2175 7.69179 11.0901 8.05325 12 8.05325C12.9099 8.05325 13.7826 7.69179 14.426 7.04839C15.0694 6.40498 15.4308 5.53234 15.4308 4.62244H15.9951C15.9939 5.68169 15.5726 6.69721 14.8236 7.44617C14.0745 8.19513 13.059 8.61635 11.9997 8.61741Z" fill="white"/>
</svg>
