<svg width="24" height="25" viewBox="0 0 24 25" fill="none" xmlns="http://www.w3.org/2000/svg">
<path d="M18.9438 13.3737C18.9562 12.4538 19.21 11.5518 19.6818 10.7517C20.1536 9.95162 20.828 9.27939 21.6423 8.79757C21.125 8.08653 20.4426 7.50136 19.6493 7.08856C18.8559 6.67576 17.9735 6.44669 17.0721 6.41955C15.1493 6.22528 13.2852 7.52699 12.3053 7.52699C11.3065 7.52699 9.79792 6.43883 8.17339 6.471C7.12259 6.50368 6.09851 6.79778 5.20092 7.32466C4.30333 7.85154 3.56285 8.59323 3.05162 9.47745C0.837066 13.1678 2.48892 18.5914 4.61028 21.5744C5.67163 23.0351 6.91206 24.6668 8.53513 24.6089C10.1234 24.5455 10.7166 23.6341 12.6338 23.6341C14.5331 23.6341 15.0897 24.6089 16.7457 24.5721C18.45 24.5455 19.5238 23.1049 20.5479 21.6304C21.3105 20.5896 21.8973 19.4393 22.2866 18.2221C21.2964 17.819 20.4515 17.1443 19.857 16.2821C19.2626 15.4199 18.945 14.4084 18.9438 13.3737Z" fill="#262626"/>
<path d="M15.8161 4.45781C16.7454 3.38411 17.2032 2.00406 17.0923 0.610718C15.6727 0.754237 14.3613 1.40731 13.4195 2.43981C12.959 2.94421 12.6063 3.53102 12.3816 4.1667C12.1569 4.80237 12.0645 5.47443 12.1098 6.14447C12.8199 6.15151 13.5224 6.00337 14.1644 5.71121C14.8064 5.41906 15.3712 4.99049 15.8161 4.45781Z" fill="#262626"/>
</svg>
