<svg width="24" height="25" viewBox="0 0 24 25" fill="none" xmlns="http://www.w3.org/2000/svg">
<path fill-rule="evenodd" clip-rule="evenodd" d="M12.7452 11.257L16.086 7.91382L2.92521 0.783154C2.63947 0.628297 2.32794 0.574254 2.05219 0.635238L12.7452 11.257ZM22.3807 12.9258C22.2039 13.022 20.261 14.0783 17.717 15.4611L14.3731 12.1385L17.714 8.79529L20.8249 10.4805C21.6463 10.9255 22.2069 11.2292 22.3807 11.3234C23.4602 11.908 22.9079 12.6393 22.3807 12.9258ZM2.05219 24.6031L12.7375 13.9105L16.0815 17.2327L2.91756 24.3885C2.58372 24.57 2.29349 24.6335 2.05219 24.6031ZM0.80363 1.63327L11.4968 12.2549L0.811285 22.9474C0.28474 22.897 0 22.3916 0 21.6731V2.87378C0 2.11073 0.361958 1.73111 0.80363 1.63327Z" fill="#262626"/>
</svg>
