<svg width="32" height="32" viewBox="0 0 32 32" fill="none" xmlns="http://www.w3.org/2000/svg">
    <path d="M17.1725 16.0052L25.7457 7.43203C26.0766 7.11246 26.0858 6.58519 25.7662 6.2543C25.4466 5.92341 24.9194 5.91423 24.5885 6.2338C24.5815 6.24049 24.5747 6.24732 24.568 6.2543L15.9948 14.8275L7.42161 6.25425C7.09072 5.93468 6.56345 5.94386 6.24388 6.27475C5.93213 6.59753 5.93213 7.10924 6.24388 7.43203L14.817 16.0052L6.24388 24.5784C5.91871 24.9037 5.91871 25.4309 6.24388 25.7562C6.56911 26.0813 7.09638 26.0813 7.42161 25.7562L15.9948 17.183L24.5679 25.7562C24.8988 26.0757 25.4261 26.0665 25.7457 25.7357C26.0574 25.4129 26.0574 24.9012 25.7457 24.5784L17.1725 16.0052Z"
          fill="#262626"/>
</svg>
