<svg width="16" height="16" viewBox="0 0 16 16" fill="none" xmlns="http://www.w3.org/2000/svg">
    <path fill-rule="evenodd" clip-rule="evenodd"
          d="M2 7.3793C2 4.41323 4.41323 2 7.3793 2C10.3455 2 12.7586 4.41323 12.7586 7.3793C12.7586 8.70504 12.2766 9.92029 11.4785 10.859L13.8717 13.2521C14.0428 13.4231 14.0428 13.7005 13.8717 13.8714C13.7861 13.957 13.674 13.9998 13.562 13.9998C13.4499 13.9998 13.3379 13.957 13.2524 13.8714L10.8592 11.4783C9.92052 12.2765 8.70517 12.7586 7.3793 12.7586C4.41323 12.7586 2 10.3455 2 7.3793ZM2.9931 7.37932C2.9931 9.79785 4.96077 11.7655 7.3793 11.7655C9.79782 11.7655 11.7655 9.79782 11.7655 7.3793C11.7655 4.96077 9.79782 2.9931 7.3793 2.9931C4.96077 2.9931 2.9931 4.96079 2.9931 7.37932Z"
          fill="#595959"/>
</svg>
